
endheader
time	pelvis_tilt	pelvis_list	pelvis_rotation	pelvis_tx	pelvis_ty	pelvis_tz	hip_flexion_r	hip_adduction_r	hip_rotation_r	knee_angle_r	ankle_angle_r	subtalar_angle_r	mtp_angle_r	hip_flexion_l	hip_adduction_l	hip_rotation_l	knee_angle_l	ankle_angle_l	subtalar_angle_l	mtp_angle_l	lumbar_extension	lumbar_bending	lumbar_rotation	arm_flex_r	arm_add_r	arm_rot_r	elbow_flex_r	pro_sup_r	wrist_flex_r	wrist_dev_r	arm_flex_l	arm_add_l	arm_rot_l	elbow_flex_l	pro_sup_l	wrist_flex_l	wrist_dev_l
8.1325	-0.132558	0.00047159	3.16407	-0.283423	0.938122	-0.0487649	-0.438398	0.0830164	-0.0455852	0.16282	0.342891	0	0	0.40883	0.00123483	-0.118766	0.153161	0.124905	0	0	-0.324879	0.00265128	0.110964	0.787101	-0.388974	1.24133	0.929896	0.690189	0	0	-0.152137	-0.345873	1.57083	0.366506	0.000544797	0	0
8.1425	-0.131884	-0.00186965	3.15958	-0.284906	0.936088	-0.048047	-0.448059	0.0761547	-0.0441186	0.175156	0.340071	0	0	0.412288	0.00471484	-0.111964	0.156551	0.120003	0	0	-0.322934	-0.00324048	0.11785	0.780496	-0.390354	1.23107	0.928177	0.690974	0	0	-0.157356	-0.348024	1.57083	0.364498	-1.27039e-05	0	0
8.15249	-0.131007	-0.00470537	3.15395	-0.286667	0.934236	-0.0473596	-0.456123	0.067942	-0.0427879	0.19001	0.334058	0	0	0.416205	0.00728891	-0.109317	0.167208	0.110756	0	0	-0.320217	-0.0100495	0.125234	0.772218	-0.390729	1.22283	0.924155	0.68965	0	0	-0.161629	-0.349931	1.57083	0.362645	-0.000358525	0	0
8.16248	-0.129862	-0.00805485	3.14732	-0.288701	0.93257	-0.0466915	-0.462269	0.0583481	-0.0419648	0.20769	0.324478	0	0	0.420534	0.00904773	-0.11101	0.184153	0.0974209	0	0	-0.316639	-0.0177392	0.132991	0.762274	-0.390135	1.21667	0.917923	0.686275	0	0	-0.164938	-0.351603	1.57083	0.360975	-0.000540363	0	0
8.17247	-0.128391	-0.0119108	3.13987	-0.290994	0.931091	-0.0460289	-0.466148	0.0473691	-0.0420258	0.228545	0.310974	0	0	0.425194	0.0100975	-0.116839	0.206267	0.080775	0	0	-0.312145	-0.0262301	0.140962	0.75073	-0.388604	1.21272	0.909561	0.680857	0	0	-0.167258	-0.353035	1.57083	0.359505	-0.000602345	0	0
8.18246	-0.12656	-0.0162361	3.13179	-0.293519	0.929799	-0.0453562	-0.467409	0.0350326	-0.043311	0.252941	0.293244	0	0	0.430086	0.010553	-0.12628	0.23244	0.0620169	0	0	-0.306728	-0.035397	0.148957	0.737725	-0.386161	1.2112	0.899133	0.673345	0	0	-0.168561	-0.354211	1.57083	0.35824	-0.000583211	0	0
8.19245	-0.124362	-0.0209632	3.12329	-0.296236	0.928694	-0.0446563	-0.465728	0.0214045	-0.0460883	0.281229	0.27106	0	0	0.435108	0.0105362	-0.138579	0.261678	0.0425937	0	0	-0.300444	-0.0450688	0.156738	0.723482	-0.382817	1.21242	0.886686	0.663631	0	0	-0.168809	-0.3551	1.57082	0.357179	-0.000515703	0	0
8.20244	-0.121823	-0.0259957	3.11462	-0.299098	0.927773	-0.0439111	-0.460832	0.00659617	-0.0505278	0.313715	0.244313	0	0	0.440145	0.0101821	-0.152852	0.293127	0.0240348	0	0	-0.293413	-0.0550313	0.164014	0.708306	-0.378571	1.21677	0.872257	0.651549	0	0	-0.167961	-0.355661	1.57081	0.356316	-0.00042675	0	0
8.21243	-0.119005	-0.0312194	3.10604	-0.302043	0.927032	-0.0431015	-0.452529	-0.00923895	-0.0566919	0.350613	0.213041	0	0	0.445054	0.00965259	-0.168151	0.326048	0.00779361	0	0	-0.285824	-0.0650419	0.170444	0.692562	-0.37341	1.22469	0.855884	0.636904	0	0	-0.165966	-0.355853	1.5708	0.35565	-0.000338144	0	0
8.22242	-0.11601	-0.0365225	3.09784	-0.305007	0.926466	-0.0422086	-0.440742	-0.0259175	-0.0645305	0.392007	0.17745	0	0	0.449632	0.00914966	-0.183554	0.359745	-0.00491918	0	0	-0.277929	-0.0748581	0.175651	0.676651	-0.367324	1.2366	0.837614	0.619506	0	0	-0.162763	-0.355642	1.57078	0.35519	-0.000267425	0	0
8.23241	-0.112979	-0.0418185	3.09028	-0.307919	0.926072	-0.0412145	-0.425534	-0.0432426	-0.0738752	0.437798	0.137933	0	0	0.453601	0.0089187	-0.198239	0.393497	-0.0132934	0	0	-0.270035	-0.0842718	0.179253	0.660967	-0.360312	1.25283	0.817526	0.599209	0	0	-0.158273	-0.355011	1.57076	0.354955	-0.000228764	0	0
8.2424	-0.110092	-0.047058	3.08362	-0.310711	0.925851	-0.0401047	-0.407124	-0.0610142	-0.0844305	0.487673	0.0950701	0	0	0.45659	0.00923315	-0.211563	0.426529	-0.0169931	0	0	-0.262492	-0.0931345	0.180912	0.645852	-0.352407	1.27354	0.795747	0.575976	0	0	-0.152399	-0.35396	1.57073	0.35497	-0.000233668	0	0
8.25239	-0.107557	-0.0522244	3.07802	-0.313322	0.925808	-0.0388704	-0.385874	-0.0790292	-0.0957871	0.541096	0.0496231	0	0	0.458165	0.0103591	-0.223094	0.45804	-0.0160983	0	0	-0.255675	-0.101363	0.180389	0.63154	-0.343686	1.2986	0.772462	0.549955	0	0	-0.145016	-0.352513	1.57069	0.355259	-0.000291365	0	0
8.26238	-0.105586	-0.0573118	3.0736	-0.315697	0.925953	-0.0375102	-0.362239	-0.0970703	-0.107468	0.597335	0.00249193	0	0	0.457886	0.0125081	-0.232603	0.487286	-0.0109643	0	0	-0.249945	-0.108922	0.177594	0.618113	-0.334304	1.32752	0.747934	0.521559	0	0	-0.135973	-0.350709	1.57065	0.35584	-0.000408752	0	0
8.27238	-0.104354	-0.0622997	3.07036	-0.317797	0.926299	-0.0360316	-0.336699	-0.114894	-0.118981	0.655519	-0.0453194	0	0	0.455379	0.0157958	-0.240015	0.51365	-0.00210269	0	0	-0.245601	-0.1158	0.172629	0.605474	-0.324502	1.35939	0.722513	0.491491	0	0	-0.1251	-0.3486	1.57059	0.356714	-0.000589827	0	0
8.28237	-0.103969	-0.0671403	3.06824	-0.319592	0.92686	-0.0344505	-0.309688	-0.132226	-0.129858	0.714708	-0.0927288	0	0	0.450385	0.0202258	-0.245366	0.536671	0.00986632	0	0	-0.242844	-0.121988	0.165772	0.593362	-0.3146	1.39293	0.696621	0.460673	0	0	-0.112221	-0.346242	1.57054	0.35786	-0.000834514	0	0
8.29236	-0.104455	-0.071759	3.06711	-0.321063	0.927649	-0.0327908	-0.28156	-0.148765	-0.139676	0.773952	-0.138584	0	0	0.442781	0.0256964	-0.248774	0.556034	0.0242292	0	0	-0.241759	-0.127476	0.157443	0.581403	-0.304964	1.42662	0.670702	0.430158	0	0	-0.0971728	-0.343689	1.57048	0.359237	-0.00113686	0	0
8.30235	-0.105741	-0.0760635	3.06679	-0.322202	0.92868	-0.0310805	-0.252562	-0.164192	-0.148078	0.832346	-0.181657	0	0	0.432587	0.0320207	-0.250413	0.571553	0.0402171	0	0	-0.242303	-0.132247	0.148137	0.569173	-0.295957	1.45888	0.645184	0.400978	0	0	-0.0798268	-0.340989	1.57043	0.36079	-0.0014826	0	0
8.31234	-0.107665	-0.0799518	3.0671	-0.323005	0.92996	-0.0293489	-0.222835	-0.178178	-0.154778	0.889081	-0.220635	0	0	0.419964	0.0389462	-0.250514	0.58316	0.0570791	0	0	-0.244299	-0.136276	0.138365	0.556246	-0.287906	1.48825	0.620433	0.374011	0	0	-0.0601139	-0.338176	1.57039	0.362466	-0.00184613	0	0
8.32233	-0.109982	-0.0833175	3.06787	-0.323482	0.931494	-0.0276239	-0.192409	-0.1904	-0.15957	0.943484	-0.254128	0	0	0.405193	0.0461743	-0.249346	0.590895	0.0741387	0	0	-0.247442	-0.139526	0.128599	0.542253	-0.281061	1.51358	0.596726	0.349849	0	0	-0.0380458	-0.335273	1.57039	0.364228	-0.0021871	0	0
8.33232	-0.112393	-0.0860535	3.06895	-0.323648	0.933275	-0.0259288	-0.161244	-0.200562	-0.162352	0.995019	-0.28074	0	0	0.38865	0.0533867	-0.247189	0.594889	0.0908316	0	0	-0.25132	-0.141936	0.119222	0.52694	-0.275565	1.53432	0.574226	0.32865	0	0	-0.0137317	-0.332286	1.57044	0.36606	-0.00244674	0	0
8.34231	-0.114585	-0.088056	3.07026	-0.323528	0.935291	-0.0242813	-0.129285	-0.208421	-0.163159	1.04323	-0.299293	0	0	0.370743	0.0602748	-0.244296	0.595343	0.106724	0	0	-0.255479	-0.143424	0.110494	0.510173	-0.271452	1.55047	0.552999	0.310147	0	0	0.012626	-0.329213	1.57055	0.367981	-0.00254451	0	0
8.3523	-0.116286	-0.0892322	3.07175	-0.323155	0.937523	-0.0226911	-0.0965248	-0.213812	-0.162175	1.08767	-0.309132	0	0	0.351865	0.0665706	-0.240851	0.592501	0.121509	0	0	-0.259477	-0.143899	0.102552	0.491923	-0.26869	1.56241	0.533073	0.293789	0	0	0.0407602	-0.326052	1.57077	0.370039	-0.00237547	0	0
8.36229	-0.117285	-0.0895167	3.07342	-0.322565	0.939945	-0.0211603	-0.0630315	-0.216674	-0.159721	1.12791	-0.31035	0	0	0.332356	0.072079	-0.23695	0.586641	0.134993	0	0	-0.26294	-0.143274	0.0954098	0.472238	-0.267209	1.57069	0.514474	0.278876	0	0	0.0703682	-0.322807	1.5711	0.372317	-0.00180935	0	0
8.37228	-0.117452	-0.0888805	3.07537	-0.321797	0.942529	-0.0196835	-0.0289573	-0.217053	-0.156225	1.16352	-0.303768	0	0	0.312483	0.0766879	-0.232596	0.578049	0.147074	0	0	-0.265591	-0.141487	0.0889738	0.451232	-0.266918	1.57599	0.497232	0.264681	0	0	0.10114	-0.319496	1.57159	0.374916	-0.000692207	0	0
8.38227	-0.116738	-0.087334	3.0777	-0.320886	0.945243	-0.0182499	0.0054705	-0.215099	-0.152166	1.19413	-0.290727	0	0	0.29244	0.0803613	-0.227723	0.567018	0.15772	0	0	-0.267263	-0.138511	0.0830779	0.429061	-0.267718	1.57896	0.481381	0.250539	0	0	0.132784	-0.316147	1.57226	0.377953	0.00114794	0	0
8.39227	-0.115165	-0.0849237	3.08054	-0.319862	0.94805	-0.0168459	0.0399676	-0.211048	-0.148039	1.21942	-0.272803	0	0	0.272351	0.0831213	-0.222229	0.553845	0.166957	0	0	-0.267894	-0.134359	0.0775241	0.405913	-0.269517	1.5802	0.466945	0.23591	0	0	0.165042	-0.312806	1.57312	0.381558	0.00388995	0	0
8.40226	-0.11282	-0.0817261	3.08401	-0.318751	0.950911	-0.0154574	0.0742112	-0.205213	-0.144312	1.23916	-0.251552	0	0	0.252277	0.0850309	-0.215998	0.538827	0.174861	0	0	-0.267519	-0.129086	0.0721166	0.381987	-0.27223	1.58023	0.453935	0.220417	0	0	0.197706	-0.309532	1.57419	0.385862	0.00770126	0	0
8.41225	-0.109841	-0.0778419	3.08821	-0.317573	0.953785	-0.0140719	0.107858	-0.197952	-0.141403	1.25322	-0.228349	0	0	0.232224	0.0861801	-0.208922	0.522254	0.181547	0	0	-0.266254	-0.122784	0.0666779	0.357494	-0.275776	1.57949	0.44233	0.203856	0	0	0.230615	-0.306395	1.57542	0.390991	0.0127106	0	0
8.42224	-0.106403	-0.0733884	3.09323	-0.316342	0.956631	-0.0126791	0.140563	-0.189649	-0.139656	1.26155	-0.204309	0	0	0.212156	0.0866735	-0.20091	0.504413	0.187162	0	0	-0.264284	-0.115579	0.061057	0.332647	-0.280075	1.57832	0.432075	0.186192	0	0	0.263647	-0.303474	1.57679	0.397072	0.0189698	0	0
8.43223	-0.102705	-0.0684949	3.09908	-0.315067	0.959407	-0.0112716	0.172003	-0.180688	-0.139321	1.26419	-0.180269	0	0	0.192011	0.0866203	-0.191906	0.485586	0.19187	0	0	-0.261835	-0.107618	0.0551356	0.307662	-0.285048	1.57696	0.423075	0.167527	0	0	0.296715	-0.300853	1.57817	0.40423	0.0264501	0	0
8.44222	-0.0989473	-0.0632985	3.10576	-0.313752	0.962069	-0.00984563	0.201893	-0.171436	-0.140544	1.26125	-0.156815	0	0	0.171717	0.086129	-0.181896	0.466046	0.19584	0	0	-0.259156	-0.0990663	0.0488279	0.282753	-0.290614	1.57559	0.415204	0.148087	0	0	0.329747	-0.298626	1.57942	0.412591	0.0350777	0	0
8.45221	-0.0953226	-0.0579383	3.11321	-0.312396	0.964578	-0.00840071	0.229989	-0.162221	-0.143376	1.2529	-0.134326	0	0	0.151201	0.0853017	-0.170921	0.446055	0.199242	0	0	-0.256496	-0.0901001	0.0420778	0.258136	-0.296686	1.57432	0.408313	0.128207	0	0	0.36267	-0.296891	1.5803	0.422268	0.0447849	0	0
